<svg aria-hidden="true" style="position: absolute; width: 0; height: 0; overflow: hidden;" version="1.1" xmlns="http://www.w3.org/2000/svg" xmlns:xlink="http://www.w3.org/1999/xlink">
<defs>
<symbol id="icon-youtube-logo" viewBox="0 0 32 32">
<path d="M25.235 23.876h-1.648l0.008-0.964c0-0.429 0.349-0.779 0.776-0.779h0.105c0.428 0 0.778 0.351 0.778 0.779l-0.019 0.964zM19.054 21.809c-0.418 0-0.76 0.283-0.76 0.63v4.69c0 0.346 0.342 0.628 0.76 0.628 0.42 0 0.762-0.282 0.762-0.628v-4.69c0-0.347-0.342-0.63-0.762-0.63zM29.091 19.185v8.923c0 2.14-1.842 3.892-4.093 3.892h-16.832c-2.252 0-4.093-1.751-4.093-3.892v-8.923c0-2.14 1.841-3.892 4.093-3.892h16.832c2.251 0 4.093 1.752 4.093 3.892zM9.289 29.077l-0.001-9.399 2.087 0.001v-1.393l-5.562-0.008v1.369l1.736 0.005v9.426h1.741zM15.543 21.078h-1.74v5.019c0 0.726 0.044 1.089-0.003 1.217-0.141 0.389-0.777 0.802-1.025 0.042-0.042-0.133-0.005-0.535-0.006-1.225l-0.007-5.054h-1.73l0.005 4.974c0.001 0.762-0.017 1.331 0.006 1.59 0.042 0.456 0.027 0.988 0.447 1.292 0.783 0.568 2.283-0.085 2.658-0.897l-0.003 1.036 1.397 0.002-0-7.997zM21.108 26.825l-0.004-4.178c-0.001-1.592-1.183-2.546-2.788-1.258l0.007-3.106-1.738 0.003-0.008 10.72 1.429-0.021 0.13-0.668c1.827 1.688 2.974 0.532 2.972-1.493zM26.552 26.272l-1.305 0.007c-0.001 0.052-0.002 0.112-0.003 0.178v0.733c0 0.392-0.322 0.712-0.713 0.712h-0.256c-0.392 0-0.713-0.32-0.713-0.712v-1.929h2.987v-1.133c0-0.828-0.021-1.656-0.089-2.129-0.213-1.497-2.299-1.735-3.352-0.969-0.331 0.239-0.583 0.56-0.73 0.99-0.148 0.431-0.222 1.019-0.222 1.766v2.491c0 4.141 4.991 3.556 4.396-0.006zM19.862 12.749c0.090 0.22 0.229 0.398 0.418 0.532 0.187 0.132 0.426 0.199 0.712 0.199 0.251 0 0.473-0.068 0.666-0.209s0.355-0.35 0.488-0.629l-0.033 0.688h1.939v-8.31h-1.526v6.468c0 0.35-0.286 0.637-0.636 0.637-0.348 0-0.635-0.287-0.635-0.637v-6.468h-1.593v5.605c0 0.714 0.013 1.19 0.034 1.431 0.022 0.24 0.077 0.47 0.166 0.692zM13.985 8.055c0-0.798 0.066-1.421 0.197-1.87 0.132-0.447 0.369-0.807 0.713-1.078 0.343-0.273 0.781-0.409 1.315-0.409 0.449 0 0.833 0.089 1.154 0.263 0.323 0.175 0.571 0.402 0.744 0.682 0.176 0.281 0.295 0.57 0.359 0.865 0.065 0.3 0.097 0.751 0.097 1.361v2.102c0 0.771-0.031 1.338-0.090 1.698s-0.186 0.696-0.382 1.010c-0.194 0.311-0.444 0.543-0.747 0.691-0.306 0.149-0.657 0.223-1.052 0.223-0.442 0-0.814-0.062-1.121-0.19s-0.546-0.32-0.715-0.576c-0.171-0.256-0.292-0.568-0.364-0.932s-0.108-0.91-0.108-1.638l0-2.2zM15.504 11.356c0 0.471 0.348 0.855 0.771 0.855s0.77-0.384 0.77-0.855v-4.424c0-0.47-0.346-0.854-0.77-0.854s-0.771 0.384-0.771 0.854v4.424zM10.138 13.59h1.829l0.002-6.374 2.162-5.46h-2.001l-1.149 4.055-1.166-4.067h-1.98l2.3 5.474 0.003 6.371z"></path>
</symbol>
<symbol id="icon-facebook-rect-logo" viewBox="0 0 32 32">
<path d="M5.843 0c-3.237 0-5.843 2.606-5.843 5.843v20.314c0 3.237 2.606 5.843 5.843 5.843h11.010v-12.51h-3.308v-4.504h3.308v-3.848c0-3.023 1.955-5.799 6.457-5.799 1.823 0 3.171 0.175 3.171 0.175l-0.106 4.206c0 0-1.375-0.013-2.875-0.013-1.624 0-1.884 0.748-1.884 1.99v3.289h4.888l-0.213 4.504h-4.675v12.51h4.541c3.237 0 5.843-2.606 5.843-5.843v-20.314c0-3.237-2.606-5.843-5.843-5.843l-20.314-0z"></path>
</symbol>
<symbol id="icon-instagram-square-logo" viewBox="0 0 32 32">
<path d="M16 12.19c-0.754 0-1.49 0.224-2.116 0.643s-1.114 1.014-1.403 1.71-0.363 1.462-0.216 2.201c0.147 0.739 0.51 1.418 1.043 1.95s1.212 0.895 1.951 1.042c0.739 0.147 1.505 0.071 2.201-0.217s1.291-0.777 1.71-1.403c0.419-0.627 0.642-1.363 0.642-2.117-0.001-1.010-0.403-1.979-1.117-2.694s-1.684-1.116-2.694-1.116zM24.908 9.261c-0.194-0.492-0.487-0.938-0.861-1.312s-0.82-0.667-1.312-0.861c-1.5-0.592-5.072-0.459-6.736-0.459s-5.232-0.138-6.736 0.459c-0.492 0.194-0.938 0.487-1.312 0.861s-0.667 0.82-0.861 1.312c-0.591 1.5-0.459 5.075-0.459 6.738s-0.132 5.234 0.462 6.739c0.194 0.492 0.487 0.938 0.861 1.312s0.82 0.666 1.312 0.86c1.5 0.592 5.072 0.459 6.736 0.459s5.232 0.138 6.736-0.459c0.492-0.194 0.938-0.487 1.312-0.86s0.667-0.82 0.861-1.312c0.596-1.5 0.459-5.075 0.459-6.738s0.137-5.233-0.459-6.738l-0.003-0.001zM16 21.857c-1.158 0-2.291-0.344-3.254-0.987s-1.714-1.558-2.157-2.629c-0.443-1.070-0.559-2.248-0.333-3.384s0.784-2.18 1.603-2.999c0.819-0.819 1.863-1.377 2.999-1.603s2.314-0.11 3.384 0.333c1.070 0.443 1.985 1.194 2.629 2.157s0.987 2.096 0.987 3.254c0.001 0.769-0.15 1.532-0.444 2.243s-0.726 1.357-1.27 1.901c-0.544 0.544-1.19 0.976-1.901 1.27s-1.473 0.445-2.243 0.444zM22.099 11.264c-0.27 0-0.535-0.080-0.76-0.23s-0.4-0.364-0.504-0.613c-0.104-0.25-0.131-0.525-0.078-0.79s0.183-0.509 0.374-0.7c0.191-0.191 0.435-0.322 0.7-0.374s0.54-0.026 0.79 0.078c0.25 0.103 0.463 0.279 0.614 0.504s0.23 0.489 0.23 0.76c0.001 0.18-0.034 0.358-0.102 0.524s-0.168 0.317-0.295 0.444c-0.127 0.127-0.277 0.228-0.443 0.297s-0.344 0.104-0.523 0.105l-0.003-0.003zM28.571 0h-25.143c-0.909 0-1.781 0.361-2.424 1.004s-1.004 1.515-1.004 2.424v25.143c0 0.909 0.361 1.781 1.004 2.424s1.515 1.004 2.424 1.004h25.143c0.909 0 1.781-0.361 2.424-1.004s1.004-1.515 1.004-2.424v-25.143c0-0.909-0.361-1.781-1.004-2.424s-1.515-1.004-2.424-1.004zM27.349 20.714c-0.092 1.831-0.51 3.453-1.847 4.786s-2.957 1.759-4.786 1.846c-1.886 0.106-7.542 0.106-9.429 0-1.831-0.092-3.447-0.511-4.786-1.846s-1.759-2.959-1.846-4.786c-0.106-1.887-0.106-7.544 0-9.429 0.092-1.831 0.505-3.453 1.846-4.786s2.962-1.754 4.786-1.841c1.886-0.106 7.542-0.106 9.429 0 1.831 0.092 3.452 0.511 4.786 1.846s1.759 2.959 1.847 4.789c0.106 1.88 0.106 7.531 0 9.42z"></path>
</symbol>
<symbol id="icon-twitch-logo" viewBox="0 0 29 32">
<path d="M2.065-0.006l-2.070 5.493v22.45h7.36v4.057h4.141l3.907-4.057h5.984l8.048-8.357v-19.586h-27.37zM26.677 18.144l-4.602 4.779h-7.36l-3.907 4.057v-4.057h-6.211v-20.064h22.080v15.286zM22.075 8.351v8.35h-2.758v-8.35h2.758zM14.715 8.351v8.35h-2.758v-8.35h2.758z"></path>
</symbol>
<symbol id="icon-twitter-square-logo" viewBox="0 0 32 32">
<path d="M28.571 0h-25.143c-1.893 0-3.429 1.536-3.429 3.429v25.143c0 1.893 1.536 3.429 3.429 3.429h25.143c1.893 0 3.429-1.536 3.429-3.429v-25.143c0-1.893-1.536-3.429-3.429-3.429zM25.079 11.343c0.014 0.2 0.014 0.407 0.014 0.607 0 6.193-4.714 13.329-13.329 13.329-2.657 0-5.121-0.771-7.193-2.1 0.379 0.043 0.743 0.057 1.129 0.057 2.193 0 4.207-0.743 5.814-2-2.057-0.043-3.786-1.393-4.379-3.25 0.721 0.107 1.371 0.107 2.114-0.086-2.143-0.436-3.75-2.321-3.75-4.6v-0.057c0.621 0.35 1.35 0.564 2.114 0.593-0.643-0.428-1.169-1.007-1.533-1.688s-0.554-1.441-0.552-2.212c0-0.871 0.229-1.671 0.636-2.364 2.307 2.843 5.771 4.7 9.657 4.9-0.664-3.179 1.714-5.757 4.571-5.757 1.35 0 2.564 0.564 3.421 1.479 1.057-0.2 2.071-0.593 2.971-1.129-0.35 1.086-1.086 2-2.057 2.579 0.943-0.1 1.857-0.364 2.7-0.729-0.636 0.936-1.436 1.764-2.35 2.429z"></path>
</symbol>
</defs>
</svg>
